<?xml version="1.0" encoding="UTF-8" standalone="no"?>
<!DOCTYPE svg PUBLIC "-//W3C//DTD SVG 1.1//EN"
 "http://www.w3.org/Graphics/SVG/1.1/DTD/svg11.dtd">
<!-- Generated by graphviz version 2.40.1 (20161225.0304)
 -->
<!-- Title: snakemake_dag Pages: 1 -->
<svg width="383pt" height="484pt"
 viewBox="0.00 0.00 383.00 484.00" xmlns="http://www.w3.org/2000/svg" xmlns:xlink="http://www.w3.org/1999/xlink">
<g id="graph0" class="graph" transform="scale(1 1) rotate(0) translate(4 480)">
<title>snakemake_dag</title>
<polygon fill="#ffffff" stroke="transparent" points="-4,4 -4,-480 379,-480 379,4 -4,4"/>
<!-- 0 -->
<g id="node1" class="node">
<title>0</title>
<path fill="none" stroke="#5692d8" stroke-width="2" d="M125,-36C125,-36 95,-36 95,-36 89,-36 83,-30 83,-24 83,-24 83,-12 83,-12 83,-6 89,0 95,0 95,0 125,0 125,0 131,0 137,-6 137,-12 137,-12 137,-24 137,-24 137,-30 131,-36 125,-36"/>
<text text-anchor="middle" x="110" y="-15" font-family="sans" font-size="10.00" fill="#000000">all</text>
</g>
<!-- 1 -->
<g id="node2" class="node">
<title>1</title>
<path fill="none" stroke="#afd856" stroke-width="2" d="M208,-244C208,-244 12,-244 12,-244 6,-244 0,-238 0,-232 0,-232 0,-188 0,-188 0,-182 6,-176 12,-176 12,-176 208,-176 208,-176 214,-176 220,-182 220,-188 220,-188 220,-232 220,-232 220,-238 214,-244 208,-244"/>
<text text-anchor="middle" x="110" y="-231" font-family="sans" font-size="10.00" fill="#000000">bam_to_bed</text>
<text text-anchor="middle" x="110" y="-219" font-family="sans" font-size="10.00" fill="#000000">genome: hg19</text>
<text text-anchor="middle" x="110" y="-207" font-family="sans" font-size="10.00" fill="#000000">length: 50</text>
<text text-anchor="middle" x="110" y="-195" font-family="sans" font-size="10.00" fill="#000000">mode: single</text>
<text text-anchor="middle" x="110" y="-183" font-family="sans" font-size="10.00" fill="#000000">sample: H3K27me3_iPSC_SRA60_subset</text>
</g>
<!-- 1&#45;&gt;0 -->
<g id="edge1" class="edge">
<title>1&#45;&gt;0</title>
<path fill="none" stroke="#c0c0c0" stroke-width="2" d="M88.2484,-175.6684C82.4394,-164.6968 76.958,-152.2195 74,-140 66.8894,-110.6262 65.2421,-100.9254 74,-72 76.9564,-62.2355 82.3252,-52.6229 88.03,-44.2762"/>
<polygon fill="#c0c0c0" stroke="#c0c0c0" stroke-width="2" points="90.9414,-46.2239 94.0095,-36.0831 85.2871,-42.0973 90.9414,-46.2239"/>
</g>
<!-- 6 -->
<g id="node7" class="node">
<title>6</title>
<path fill="none" stroke="#56c9d8" stroke-width="2" d="M125,-124C125,-124 95,-124 95,-124 89,-124 83,-118 83,-112 83,-112 83,-100 83,-100 83,-94 89,-88 95,-88 95,-88 125,-88 125,-88 131,-88 137,-94 137,-100 137,-100 137,-112 137,-112 137,-118 131,-124 125,-124"/>
<text text-anchor="middle" x="110" y="-103" font-family="sans" font-size="10.00" fill="#000000">liftover</text>
</g>
<!-- 1&#45;&gt;6 -->
<g id="edge8" class="edge">
<title>1&#45;&gt;6</title>
<path fill="none" stroke="#c0c0c0" stroke-width="2" d="M110,-175.9465C110,-162.4324 110,-147.0751 110,-134.1999"/>
<polygon fill="#c0c0c0" stroke="#c0c0c0" stroke-width="2" points="113.5001,-134.0634 110,-124.0634 106.5001,-134.0635 113.5001,-134.0634"/>
</g>
<!-- 2 -->
<g id="node3" class="node">
<title>2</title>
<path fill="none" stroke="#d8cb56" stroke-width="2" d="M333,-316C333,-316 25,-316 25,-316 19,-316 13,-310 13,-304 13,-304 13,-292 13,-292 13,-286 19,-280 25,-280 25,-280 333,-280 333,-280 339,-280 345,-286 345,-292 345,-292 345,-304 345,-304 345,-310 339,-316 333,-316"/>
<text text-anchor="middle" x="179" y="-301" font-family="sans" font-size="10.00" fill="#000000">sam_to_bam</text>
<text text-anchor="middle" x="179" y="-289" font-family="sans" font-size="10.00" fill="#000000">sample: H3K27me3_iPSC_SRA60_subset_CROP50_hg19_single</text>
</g>
<!-- 2&#45;&gt;1 -->
<g id="edge4" class="edge">
<title>2&#45;&gt;1</title>
<path fill="none" stroke="#c0c0c0" stroke-width="2" d="M164.7032,-279.7663C158.412,-271.7429 150.7371,-261.9545 143.1493,-252.2774"/>
<polygon fill="#c0c0c0" stroke="#c0c0c0" stroke-width="2" points="145.7531,-249.9258 136.8284,-244.216 140.2445,-254.245 145.7531,-249.9258"/>
</g>
<!-- 5 -->
<g id="node6" class="node">
<title>5</title>
<path fill="none" stroke="#d85656" stroke-width="2" d="M363,-140C363,-140 167,-140 167,-140 161,-140 155,-134 155,-128 155,-128 155,-84 155,-84 155,-78 161,-72 167,-72 167,-72 363,-72 363,-72 369,-72 375,-78 375,-84 375,-84 375,-128 375,-128 375,-134 369,-140 363,-140"/>
<text text-anchor="middle" x="265" y="-127" font-family="sans" font-size="10.00" fill="#000000">count_unique_reads</text>
<text text-anchor="middle" x="265" y="-115" font-family="sans" font-size="10.00" fill="#000000">genome: hg19</text>
<text text-anchor="middle" x="265" y="-103" font-family="sans" font-size="10.00" fill="#000000">length: 50</text>
<text text-anchor="middle" x="265" y="-91" font-family="sans" font-size="10.00" fill="#000000">mode: single</text>
<text text-anchor="middle" x="265" y="-79" font-family="sans" font-size="10.00" fill="#000000">sample: H3K27me3_iPSC_SRA60_subset</text>
</g>
<!-- 2&#45;&gt;5 -->
<g id="edge7" class="edge">
<title>2&#45;&gt;5</title>
<path fill="none" stroke="#c0c0c0" stroke-width="2" d="M200.105,-279.8575C210.1884,-270.1529 221.6351,-257.4472 229,-244 244.9954,-214.7949 254.12,-178.1904 259.1785,-150.0205"/>
<polygon fill="#c0c0c0" stroke="#c0c0c0" stroke-width="2" points="262.6476,-150.4965 260.8633,-140.053 255.7455,-149.3298 262.6476,-150.4965"/>
</g>
<!-- 3 -->
<g id="node4" class="node">
<title>3</title>
<path fill="none" stroke="#56d8a9" stroke-width="2" d="M212.5,-396C212.5,-396 145.5,-396 145.5,-396 139.5,-396 133.5,-390 133.5,-384 133.5,-384 133.5,-364 133.5,-364 133.5,-358 139.5,-352 145.5,-352 145.5,-352 212.5,-352 212.5,-352 218.5,-352 224.5,-358 224.5,-364 224.5,-364 224.5,-384 224.5,-384 224.5,-390 218.5,-396 212.5,-396"/>
<text text-anchor="middle" x="179" y="-383" font-family="sans" font-size="10.00" fill="#000000">align_single</text>
<text text-anchor="middle" x="179" y="-371" font-family="sans" font-size="10.00" fill="#000000">genome: hg19</text>
<text text-anchor="middle" x="179" y="-359" font-family="sans" font-size="10.00" fill="#000000">mode: single</text>
</g>
<!-- 3&#45;&gt;2 -->
<g id="edge5" class="edge">
<title>3&#45;&gt;2</title>
<path fill="none" stroke="#c0c0c0" stroke-width="2" d="M179,-351.6086C179,-343.7272 179,-334.7616 179,-326.4482"/>
<polygon fill="#c0c0c0" stroke="#c0c0c0" stroke-width="2" points="182.5001,-326.3974 179,-316.3975 175.5001,-326.3975 182.5001,-326.3974"/>
</g>
<!-- 4 -->
<g id="node5" class="node">
<title>4</title>
<path fill="none" stroke="#56d873" stroke-width="2" d="M277,-476C277,-476 81,-476 81,-476 75,-476 69,-470 69,-464 69,-464 69,-444 69,-444 69,-438 75,-432 81,-432 81,-432 277,-432 277,-432 283,-432 289,-438 289,-444 289,-444 289,-464 289,-464 289,-470 283,-476 277,-476"/>
<text text-anchor="middle" x="179" y="-463" font-family="sans" font-size="10.00" fill="#000000">trim_reads_single</text>
<text text-anchor="middle" x="179" y="-451" font-family="sans" font-size="10.00" fill="#000000">length: 50</text>
<text text-anchor="middle" x="179" y="-439" font-family="sans" font-size="10.00" fill="#000000">sample: H3K27me3_iPSC_SRA60_subset</text>
</g>
<!-- 4&#45;&gt;3 -->
<g id="edge6" class="edge">
<title>4&#45;&gt;3</title>
<path fill="none" stroke="#c0c0c0" stroke-width="2" d="M179,-431.7155C179,-423.827 179,-414.7865 179,-406.2379"/>
<polygon fill="#c0c0c0" stroke="#c0c0c0" stroke-width="2" points="182.5001,-406.1649 179,-396.165 175.5001,-406.165 182.5001,-406.1649"/>
</g>
<!-- 5&#45;&gt;0 -->
<g id="edge2" class="edge">
<title>5&#45;&gt;0</title>
<path fill="none" stroke="#c0c0c0" stroke-width="2" d="M205.073,-71.9769C185.1959,-60.6918 163.6908,-48.4825 146.1696,-38.535"/>
<polygon fill="#c0c0c0" stroke="#c0c0c0" stroke-width="2" points="147.8243,-35.4497 137.4,-33.5561 144.3682,-41.5371 147.8243,-35.4497"/>
</g>
<!-- 6&#45;&gt;0 -->
<g id="edge3" class="edge">
<title>6&#45;&gt;0</title>
<path fill="none" stroke="#c0c0c0" stroke-width="2" d="M110,-87.7663C110,-75.8492 110,-60.0384 110,-46.4817"/>
<polygon fill="#c0c0c0" stroke="#c0c0c0" stroke-width="2" points="113.5001,-46.2103 110,-36.2103 106.5001,-46.2103 113.5001,-46.2103"/>
</g>
</g>
</svg>
