<?xml version="1.0" encoding="UTF-8" standalone="no"?>
<!DOCTYPE svg PUBLIC "-//W3C//DTD SVG 1.1//EN"
 "http://www.w3.org/Graphics/SVG/1.1/DTD/svg11.dtd">
<!-- Generated by graphviz version 2.40.1 (20161225.0304)
 -->
<!-- Title: snakemake_dag Pages: 1 -->
<svg width="466pt" height="380pt"
 viewBox="0.00 0.00 466.00 380.00" xmlns="http://www.w3.org/2000/svg" xmlns:xlink="http://www.w3.org/1999/xlink">
<g id="graph0" class="graph" transform="scale(1 1) rotate(0) translate(4 376)">
<title>snakemake_dag</title>
<polygon fill="#ffffff" stroke="transparent" points="-4,4 -4,-376 462,-376 462,4 -4,4"/>
<!-- 0 -->
<g id="node1" class="node">
<title>0</title>
<path fill="none" stroke="#56d873" stroke-width="2" stroke-dasharray="5,2" d="M244,-36C244,-36 214,-36 214,-36 208,-36 202,-30 202,-24 202,-24 202,-12 202,-12 202,-6 208,0 214,0 214,0 244,0 244,0 250,0 256,-6 256,-12 256,-12 256,-24 256,-24 256,-30 250,-36 244,-36"/>
<text text-anchor="middle" x="229" y="-15" font-family="sans" font-size="10.00" fill="#000000">all</text>
</g>
<!-- 1 -->
<g id="node2" class="node">
<title>1</title>
<path fill="none" stroke="#d8cb56" stroke-width="2" stroke-dasharray="5,2" d="M208,-140C208,-140 12,-140 12,-140 6,-140 0,-134 0,-128 0,-128 0,-84 0,-84 0,-78 6,-72 12,-72 12,-72 208,-72 208,-72 214,-72 220,-78 220,-84 220,-84 220,-128 220,-128 220,-134 214,-140 208,-140"/>
<text text-anchor="middle" x="110" y="-127" font-family="sans" font-size="10.00" fill="#000000">bam_to_bed</text>
<text text-anchor="middle" x="110" y="-115" font-family="sans" font-size="10.00" fill="#000000">genome: hg38</text>
<text text-anchor="middle" x="110" y="-103" font-family="sans" font-size="10.00" fill="#000000">length: 50</text>
<text text-anchor="middle" x="110" y="-91" font-family="sans" font-size="10.00" fill="#000000">mode: paired</text>
<text text-anchor="middle" x="110" y="-79" font-family="sans" font-size="10.00" fill="#000000">sample: H3K27me3_iPSC_SRA60_subset</text>
</g>
<!-- 1&#45;&gt;0 -->
<g id="edge1" class="edge">
<title>1&#45;&gt;0</title>
<path fill="none" stroke="#c0c0c0" stroke-width="2" d="M156.0085,-71.9769C169.3999,-62.074 183.7537,-51.4595 196.1586,-42.2861"/>
<polygon fill="#c0c0c0" stroke="#c0c0c0" stroke-width="2" points="198.4402,-44.9519 204.3995,-36.192 194.2781,-39.3237 198.4402,-44.9519"/>
</g>
<!-- 2 -->
<g id="node3" class="node">
<title>2</title>
<path fill="none" stroke="#d88d56" stroke-width="2" stroke-dasharray="5,2" d="M384,-212C384,-212 74,-212 74,-212 68,-212 62,-206 62,-200 62,-200 62,-188 62,-188 62,-182 68,-176 74,-176 74,-176 384,-176 384,-176 390,-176 396,-182 396,-188 396,-188 396,-200 396,-200 396,-206 390,-212 384,-212"/>
<text text-anchor="middle" x="229" y="-197" font-family="sans" font-size="10.00" fill="#000000">sam_to_bam</text>
<text text-anchor="middle" x="229" y="-185" font-family="sans" font-size="10.00" fill="#000000">sample: H3K27me3_iPSC_SRA60_subset_CROP50_hg38_paired</text>
</g>
<!-- 2&#45;&gt;1 -->
<g id="edge3" class="edge">
<title>2&#45;&gt;1</title>
<path fill="none" stroke="#c0c0c0" stroke-width="2" d="M204.6314,-175.9795C192.9219,-167.3204 178.3843,-156.5699 164.2455,-146.1143"/>
<polygon fill="#c0c0c0" stroke="#c0c0c0" stroke-width="2" points="166.1126,-143.142 155.9912,-140.0103 161.9505,-148.7703 166.1126,-143.142"/>
</g>
<!-- 5 -->
<g id="node6" class="node">
<title>5</title>
<path fill="none" stroke="#56c9d8" stroke-width="2" stroke-dasharray="5,2" d="M446,-140C446,-140 250,-140 250,-140 244,-140 238,-134 238,-128 238,-128 238,-84 238,-84 238,-78 244,-72 250,-72 250,-72 446,-72 446,-72 452,-72 458,-78 458,-84 458,-84 458,-128 458,-128 458,-134 452,-140 446,-140"/>
<text text-anchor="middle" x="348" y="-127" font-family="sans" font-size="10.00" fill="#000000">count_unique_reads</text>
<text text-anchor="middle" x="348" y="-115" font-family="sans" font-size="10.00" fill="#000000">genome: hg38</text>
<text text-anchor="middle" x="348" y="-103" font-family="sans" font-size="10.00" fill="#000000">length: 50</text>
<text text-anchor="middle" x="348" y="-91" font-family="sans" font-size="10.00" fill="#000000">mode: paired</text>
<text text-anchor="middle" x="348" y="-79" font-family="sans" font-size="10.00" fill="#000000">sample: H3K27me3_iPSC_SRA60_subset</text>
</g>
<!-- 2&#45;&gt;5 -->
<g id="edge6" class="edge">
<title>2&#45;&gt;5</title>
<path fill="none" stroke="#c0c0c0" stroke-width="2" d="M253.3686,-175.9795C265.0781,-167.3204 279.6157,-156.5699 293.7545,-146.1143"/>
<polygon fill="#c0c0c0" stroke="#c0c0c0" stroke-width="2" points="296.0495,-148.7703 302.0088,-140.0103 291.8874,-143.142 296.0495,-148.7703"/>
</g>
<!-- 3 -->
<g id="node4" class="node">
<title>3</title>
<path fill="none" stroke="#56d8a9" stroke-width="2" stroke-dasharray="5,2" d="M262.5,-292C262.5,-292 195.5,-292 195.5,-292 189.5,-292 183.5,-286 183.5,-280 183.5,-280 183.5,-260 183.5,-260 183.5,-254 189.5,-248 195.5,-248 195.5,-248 262.5,-248 262.5,-248 268.5,-248 274.5,-254 274.5,-260 274.5,-260 274.5,-280 274.5,-280 274.5,-286 268.5,-292 262.5,-292"/>
<text text-anchor="middle" x="229" y="-279" font-family="sans" font-size="10.00" fill="#000000">align_paired</text>
<text text-anchor="middle" x="229" y="-267" font-family="sans" font-size="10.00" fill="#000000">genome: hg38</text>
<text text-anchor="middle" x="229" y="-255" font-family="sans" font-size="10.00" fill="#000000">mode: paired</text>
</g>
<!-- 3&#45;&gt;2 -->
<g id="edge4" class="edge">
<title>3&#45;&gt;2</title>
<path fill="none" stroke="#c0c0c0" stroke-width="2" d="M229,-247.6086C229,-239.7272 229,-230.7616 229,-222.4482"/>
<polygon fill="#c0c0c0" stroke="#c0c0c0" stroke-width="2" points="232.5001,-222.3974 229,-212.3975 225.5001,-222.3975 232.5001,-222.3974"/>
</g>
<!-- 4 -->
<g id="node5" class="node">
<title>4</title>
<path fill="none" stroke="#5692d8" stroke-width="2" stroke-dasharray="5,2" d="M327,-372C327,-372 131,-372 131,-372 125,-372 119,-366 119,-360 119,-360 119,-340 119,-340 119,-334 125,-328 131,-328 131,-328 327,-328 327,-328 333,-328 339,-334 339,-340 339,-340 339,-360 339,-360 339,-366 333,-372 327,-372"/>
<text text-anchor="middle" x="229" y="-359" font-family="sans" font-size="10.00" fill="#000000">trim_reads_paired</text>
<text text-anchor="middle" x="229" y="-347" font-family="sans" font-size="10.00" fill="#000000">length: 50</text>
<text text-anchor="middle" x="229" y="-335" font-family="sans" font-size="10.00" fill="#000000">sample: H3K27me3_iPSC_SRA60_subset</text>
</g>
<!-- 4&#45;&gt;3 -->
<g id="edge5" class="edge">
<title>4&#45;&gt;3</title>
<path fill="none" stroke="#c0c0c0" stroke-width="2" d="M229,-327.7155C229,-319.827 229,-310.7865 229,-302.2379"/>
<polygon fill="#c0c0c0" stroke="#c0c0c0" stroke-width="2" points="232.5001,-302.1649 229,-292.165 225.5001,-302.165 232.5001,-302.1649"/>
</g>
<!-- 5&#45;&gt;0 -->
<g id="edge2" class="edge">
<title>5&#45;&gt;0</title>
<path fill="none" stroke="#c0c0c0" stroke-width="2" d="M301.9915,-71.9769C288.6001,-62.074 274.2463,-51.4595 261.8414,-42.2861"/>
<polygon fill="#c0c0c0" stroke="#c0c0c0" stroke-width="2" points="263.7219,-39.3237 253.6005,-36.192 259.5598,-44.9519 263.7219,-39.3237"/>
</g>
</g>
</svg>
